<svg width="159" height="23" viewBox="0 0 159 23" fill="none" xmlns="http://www.w3.org/2000/svg">
<path d="M13.002 1.55153V15.8915C13.002 17.9735 12.306 19.3615 11.145 20.5175C9.985 21.6745 8.359 22.1375 6.501 22.1375C4.411 22.1375 3.018 21.6745 1.625 20.5175C0.697 19.5925 0 17.9735 0 15.8915H4.18C4.18 16.8165 4.412 17.5115 4.876 17.9735C5.34 18.4355 5.805 18.6675 6.733 18.6675C7.43 18.6675 8.127 18.4355 8.359 17.9735C8.591 17.5105 8.823 16.8165 8.823 16.1235V1.55053H13.003L13.002 1.55153ZM31.577 15.1975H19.504C19.504 16.3535 19.968 17.2795 20.664 17.9725C21.594 18.6665 22.522 19.1295 23.451 19.1295C25.076 19.1295 26.005 18.4355 26.701 17.0475H31.113C30.649 18.6675 29.72 19.8235 28.327 20.9795C26.934 22.1365 25.308 22.5995 23.451 22.5995C21.978 22.604 20.5321 22.2037 19.271 21.4425C18.111 20.7485 16.949 19.8225 16.253 18.4355C15.556 17.0475 15.324 15.6605 15.324 14.0405C15.324 12.4215 15.556 10.8025 16.253 9.64653C16.95 8.48953 17.878 7.33353 19.039 6.63953C20.2 5.94553 21.826 5.71453 23.219 5.71453C24.844 5.71453 26.237 5.94553 27.398 6.63953C28.5435 7.31821 29.5012 8.27247 30.184 9.41553C30.881 10.5715 31.113 11.9595 31.113 13.5785C31.577 14.2725 31.577 14.7345 31.577 15.1975ZM27.398 12.4215C27.398 11.2655 26.934 10.5715 26.238 9.87753C25.541 9.18353 24.612 8.95253 23.451 8.95253C22.522 8.95253 21.593 9.41553 20.897 9.87753C20.2 10.3405 19.736 11.4975 19.504 12.4215H27.398ZM38.079 9.18453V17.0485C38.079 17.5105 38.311 17.9735 38.543 18.2045C38.775 18.4355 39.24 18.6675 39.936 18.6675H41.794V22.1365H39.24C35.757 22.1365 33.9 20.5175 33.9 17.0485V9.18453H32.042V5.94653H33.899V1.78253H38.079V5.71453H41.794V9.18453H38.079ZM46.206 21.4435C45.045 20.7495 43.884 19.8235 43.187 18.4365C42.491 17.0485 42.027 15.6605 42.027 14.0415C42.027 12.4225 42.491 10.8035 43.187 9.64753C43.884 8.25953 45.045 7.33453 46.206 6.64053C47.366 5.94653 48.992 5.48353 50.386 5.48353C52.01 5.48353 53.404 5.94653 54.564 6.64053C55.725 7.33453 56.886 8.25953 57.583 9.64753C58.28 11.0345 58.743 12.4225 58.743 14.0415C58.743 15.6615 58.743 17.2795 58.047 18.4365C57.351 19.5925 56.19 20.7495 55.029 21.4435C53.868 22.1375 52.243 22.5995 50.617 22.5995C48.992 22.3685 47.599 22.1375 46.206 21.4435ZM52.707 18.4365C53.3582 18.0188 53.9123 17.4664 54.332 16.8165C54.797 16.1235 55.029 15.1985 55.029 14.2735C55.029 12.6535 54.564 11.4975 53.868 10.8035C53.171 10.1095 52.01 9.64753 50.849 9.64753C49.689 9.64753 48.759 10.1095 47.831 10.8035C46.902 11.2665 46.438 12.4235 46.438 14.0415C46.438 15.6615 46.902 16.8175 47.598 17.5115C48.295 18.4365 49.456 18.6675 50.618 18.6675C51.314 18.8985 52.01 18.6675 52.707 18.4365ZM74.764 7.56453C75.925 8.72153 76.622 10.3405 76.622 12.6535V22.1365H72.442V13.1165C72.442 11.7275 72.21 10.8025 71.514 10.1085C70.817 9.41553 69.888 8.95253 68.96 8.95253C67.799 8.95253 66.87 9.41553 66.173 10.1085C65.477 10.8025 65.013 11.9585 65.013 13.1155V22.1355H60.833V5.94653H65.013V8.02853C65.477 7.33453 66.173 6.87153 67.103 6.40853C68.031 5.94653 68.96 5.71553 69.888 5.71553C71.978 5.71553 73.603 6.17653 74.764 7.56453ZM85.445 6.40853C86.373 5.94653 87.535 5.71453 88.695 5.71453C90.088 5.71453 91.249 5.94653 92.41 6.63953C93.571 7.33353 94.5 8.25953 95.197 9.64653C95.893 10.8035 96.125 12.4225 96.125 14.0415C96.125 15.6605 95.893 17.0485 95.197 18.4355C94.5 19.8235 93.571 20.7485 92.41 21.4425C91.25 22.1365 90.088 22.5995 88.695 22.5995C87.535 22.5995 86.373 22.3675 85.445 21.9055C84.515 21.4425 83.819 20.7485 83.123 20.0555V22.3675H78.943V0.395531H83.123V8.25953C83.819 7.56553 84.516 6.87053 85.445 6.40853ZM91.482 11.4975C91.017 10.8035 90.552 10.1095 89.856 9.87753C89.16 9.41553 88.463 9.41553 87.766 9.41553C87.07 9.41553 86.373 9.64653 85.676 9.87853C84.98 10.1085 84.516 10.8035 84.052 11.4975C83.587 12.1915 83.355 13.1165 83.355 14.0415C83.355 14.9665 83.587 15.8915 84.052 16.5855C84.516 17.2795 84.98 17.9735 85.677 18.2055C86.373 18.6675 87.07 18.6675 87.767 18.6675C88.463 18.6675 89.16 18.4355 89.857 17.9735C90.5078 17.5557 91.0616 17.0033 91.481 16.3535C91.946 15.6605 92.178 14.7355 92.178 13.8095C91.9778 13.0295 91.7463 12.2582 91.482 11.4975ZM98.215 9.64653C98.91 8.25853 99.84 7.33353 101 6.63953C102.16 5.94553 103.322 5.71453 104.715 5.71453C105.876 5.71453 107.037 5.94553 107.966 6.40853C108.894 6.87053 109.591 7.56453 110.288 8.25853V5.94553H114.467V22.3675H110.288V20.0545C109.823 20.7485 109.127 21.4425 107.966 21.9045C107.037 22.3675 105.876 22.5985 104.715 22.5985C103.322 22.5985 102.161 22.1365 101 21.4425C99.839 20.7485 98.91 19.8225 98.214 18.4355C97.517 17.0475 97.285 15.6605 97.285 14.0405C97.053 12.4215 97.518 10.8025 98.215 9.64653ZM109.36 11.4965C109.128 10.8025 108.431 10.1085 107.734 9.87753C107.038 9.64653 106.341 9.41553 105.645 9.41553C104.948 9.41553 104.252 9.64553 103.555 9.87753C102.904 10.295 102.349 10.8474 101.93 11.4975C101.465 12.1905 101.233 13.1155 101.233 14.0405C101.233 14.9665 101.465 15.8905 101.93 16.5855C102.394 17.2795 102.858 17.9725 103.555 18.2045C104.252 18.4355 104.948 18.8985 105.645 18.8985C106.341 18.8985 107.038 18.6665 107.734 18.4355C108.385 18.0178 108.94 17.4654 109.36 16.8155C109.824 16.1225 110.056 15.1975 110.056 14.2725C110.056 13.3475 109.824 12.1905 109.36 11.4965ZM130.722 7.56453C131.882 8.72153 132.579 10.5715 132.579 12.6535V22.1365H128.4V13.1165C128.4 11.7275 128.167 10.8025 127.471 10.1085C126.774 9.41553 125.846 8.95253 124.917 8.95253C124.399 8.94776 123.885 9.0477 123.406 9.24634C122.927 9.44498 122.494 9.73823 122.131 10.1085C121.434 10.8025 121.202 11.7285 121.202 13.1155V22.1355H117.022V5.94653H121.202V8.02853C121.666 7.33453 122.363 6.87153 123.292 6.40853C124.22 5.94653 125.149 5.71553 126.078 5.71553C127.935 5.71553 129.561 6.17653 130.722 7.56453ZM144.885 22.1365L139.313 15.1975V22.1375H135.134V0.394531H139.313V12.8845L144.885 5.94453H150.226L143.028 14.0405L150.226 22.1355L144.885 22.1365ZM156.107 18.0005C155.83 18.0005 155.556 18.055 155.301 18.1609C155.045 18.2668 154.813 18.422 154.617 18.6177C154.421 18.8133 154.266 19.0456 154.16 19.3012C154.055 19.5569 154 19.8308 154 20.1075C154 20.3842 154.055 20.6582 154.16 20.9138C154.266 21.1695 154.421 21.4018 154.617 21.5974C154.813 21.7931 155.045 21.9483 155.301 22.0541C155.556 22.16 155.83 22.2145 156.107 22.2145C156.666 22.2145 157.202 21.9925 157.597 21.5974C157.992 21.2023 158.214 20.6663 158.214 20.1075C158.214 19.5487 157.992 19.0128 157.597 18.6177C157.202 18.2225 156.666 18.0005 156.107 18.0005ZM156.107 21.8575C155.643 21.8575 155.198 21.6732 154.87 21.345C154.541 21.0168 154.357 20.5717 154.357 20.1075C154.357 19.6434 154.541 19.1983 154.87 18.8701C155.198 18.5419 155.643 18.3575 156.107 18.3575C156.571 18.3575 157.016 18.5419 157.344 18.8701C157.673 19.1983 157.857 19.6434 157.857 20.1075C157.857 20.5717 157.673 21.0168 157.344 21.345C157.016 21.6732 156.571 21.8575 156.107 21.8575ZM156.519 20.2825C156.632 20.24 156.728 20.1629 156.794 20.0623C156.86 19.9617 156.893 19.8428 156.887 19.7225C156.887 19.3875 156.673 19.1055 156.209 19.1055H155.477C155.472 19.1055 155.467 19.1065 155.462 19.1084C155.458 19.1103 155.454 19.1131 155.45 19.1167C155.447 19.1202 155.444 19.1244 155.442 19.129C155.44 19.1336 155.439 19.1385 155.439 19.1435V21.0715C155.439 21.0915 155.456 21.1095 155.477 21.1095H155.733C155.743 21.1095 155.753 21.1055 155.76 21.0984C155.767 21.0913 155.771 21.0816 155.771 21.0715V20.3385H156.188L156.539 21.0885C156.542 21.0947 156.547 21.0999 156.553 21.1034C156.559 21.107 156.566 21.1087 156.573 21.1085H156.864C156.87 21.1089 156.877 21.1075 156.882 21.1045C156.888 21.1017 156.893 21.0972 156.896 21.0915C156.899 21.0859 156.901 21.0798 156.902 21.0735C156.902 21.0674 156.9 21.0613 156.898 21.0555L156.519 20.2825ZM156.154 20.0745H155.771V19.3785H156.163C156.389 19.3785 156.543 19.4975 156.543 19.7335C156.543 19.9535 156.403 20.0745 156.154 20.0745Z" fill="#220002"/>
</svg>
