<svg width="254" height="50" viewBox="0 0 254 50" fill="none" xmlns="http://www.w3.org/2000/svg">
<path fill-rule="evenodd" clip-rule="evenodd" d="M69.2819 7.73786C68.8972 8.13967 68.4739 8.51524 68.3411 8.57252C68.2084 8.6297 68.0292 8.71635 67.943 8.76507C66.7926 9.41461 66.7525 9.41889 60.7827 9.52562C57.7932 9.57914 50.9021 9.65701 45.4692 9.69872C37.8735 9.75705 35.5384 9.80482 35.3629 9.90527C35.2373 9.97708 35.0429 10.0359 34.9307 10.0359C34.6899 10.0359 33.7374 10.3085 33.2916 10.505C33.1191 10.581 32.7547 10.73 32.4819 10.8361C32.209 10.9422 31.9856 11.0643 31.9854 11.1074C31.9852 11.1504 31.9262 11.1859 31.8543 11.186C31.7106 11.1863 30.7077 11.8434 30.0512 12.3677C29.2523 13.0054 28.4146 13.9124 27.771 14.8365C27.5877 15.0995 27.4027 15.3303 27.3595 15.3495C27.3164 15.3687 27.2811 15.444 27.2811 15.5167C27.2811 15.5896 27.14 15.844 26.9676 16.082C26.7951 16.3201 26.654 16.5365 26.654 16.5628C26.654 16.5892 26.5129 16.8199 26.3404 17.0754C26.1679 17.331 26.0268 17.592 26.0268 17.6556C26.0268 17.7191 25.9798 17.7711 25.9223 17.7711C25.8648 17.7711 25.8177 17.8383 25.8177 17.9205C25.8177 18.0025 25.7563 18.1319 25.6812 18.2079C25.6062 18.2838 25.5126 18.4166 25.4734 18.5028C25.4342 18.589 24.8136 19.5768 24.0942 20.6979L22.7862 22.7362L24.2758 22.7721C25.0951 22.7917 27.5529 22.7517 29.7376 22.6831C34.0267 22.5483 56.6539 22.3821 56.6538 22.4854C56.6538 22.5198 56.5199 22.733 56.3562 22.959C55.6807 23.8915 54.4232 24.716 53.2566 24.9914C52.5644 25.1548 45.4616 25.2702 28.7968 25.3885C16.9938 25.4724 15.4579 25.5019 14.9467 25.6537C13.8782 25.9713 13.3279 26.154 12.9971 26.3008C12.816 26.3813 12.616 26.447 12.5529 26.447C12.4896 26.447 12.438 26.494 12.438 26.5515C12.438 26.609 12.3622 26.6561 12.2696 26.6561C11.8538 26.6561 10.0289 27.9278 9.04457 28.9034C8.36325 29.5787 7.42061 30.7504 7.42061 30.922C7.42061 30.9808 7.38361 31.0445 7.33834 31.0637C7.29308 31.0829 6.74263 31.9452 6.11525 32.9801C5.48786 34.0149 4.937 34.8773 4.891 34.8964C4.84501 34.9156 4.80738 34.9728 4.80738 35.0235C4.80738 35.1086 4.31923 35.8907 3.17066 37.6456C2.92105 38.0271 2.7168 38.3929 2.7168 38.4586C2.7168 38.5891 11.0002 38.5442 21.1924 38.3584C24.1964 38.3036 29.7704 38.2536 33.5791 38.2471C42.8029 38.2315 45.5668 38.1188 46.0441 37.739C46.1016 37.6932 46.3015 37.6231 46.4884 37.5831C46.6752 37.5432 46.8281 37.4672 46.8281 37.4143C46.8281 37.3613 46.9399 37.318 47.0767 37.318C47.2133 37.318 47.3837 37.2475 47.4553 37.1612C47.5269 37.075 47.6243 37.0044 47.6719 37.0044C47.7729 37.0044 48.6499 36.4236 49.0106 36.1177C49.4321 35.7602 50.1041 35.0724 50.4611 34.633C50.8673 34.1329 53.186 30.5501 53.2726 30.2885C53.306 30.1879 53.3641 30.1055 53.4017 30.1055C53.4393 30.1055 53.5866 29.8821 53.7292 29.609C53.8717 29.3359 54.0143 29.089 54.046 29.0602C54.1792 28.9395 54.7723 27.9963 54.7723 27.9052C54.7723 27.8505 54.8184 27.8059 54.8749 27.8059C54.9312 27.8059 55.0069 27.6883 55.0429 27.5446C55.079 27.4008 55.1397 27.2832 55.1778 27.2832C55.2159 27.2832 55.3627 27.0716 55.504 26.8129C55.6453 26.5541 55.7918 26.3425 55.8293 26.3425C55.8669 26.3425 55.9262 26.2602 55.961 26.1596C55.9957 26.0589 56.107 25.8531 56.2083 25.7021C56.3096 25.5512 56.6526 25.0103 56.9706 24.5C58.4798 22.078 58.3917 22.1693 59.5807 21.7936C59.8969 21.6936 60.2598 21.5474 60.3871 21.4685C60.5144 21.3896 60.6649 21.3251 60.7216 21.3251C60.8474 21.3251 61.8143 20.6866 61.8628 20.5715C61.8821 20.5261 61.9449 20.4888 62.0025 20.4888C62.1929 20.4888 63.9709 18.7456 63.9709 18.559C63.9709 18.4758 64.6444 17.5124 64.7287 17.475C64.7719 17.4557 64.8071 17.3768 64.8071 17.2995C64.8071 17.2221 64.866 17.0947 64.9378 17.0163C65.0097 16.9379 65.1243 16.7817 65.1924 16.6691C65.511 16.1433 66.147 15.1341 66.6389 14.3739C66.9365 13.914 67.3987 13.1991 67.666 12.7854C67.9334 12.3716 68.152 11.9835 68.152 11.923C68.152 11.8625 68.1959 11.8129 68.2496 11.8129C68.3032 11.8129 68.38 11.707 68.4204 11.5777C68.4608 11.4484 68.5232 11.319 68.5591 11.2903C68.6194 11.242 69.0692 10.5808 69.377 10.0882C69.4488 9.97321 69.5374 9.79687 69.5737 9.69621C69.6101 9.59555 69.6706 9.51328 69.7083 9.51328C69.7458 9.51328 69.8922 9.30161 70.0336 9.0429C70.1749 8.78419 70.3216 8.57252 70.3598 8.57252C70.3979 8.57252 70.4586 8.45493 70.4947 8.3112C70.5307 8.16747 70.6064 8.04988 70.6627 8.04988C70.7192 8.04988 70.7653 7.99479 70.7653 7.92747C70.7653 7.86016 70.8303 7.73075 70.9097 7.64002C70.9892 7.54918 71.0864 7.36908 71.1258 7.23978C71.1945 7.01452 71.1718 7.00469 70.5894 7.00594L69.9813 7.0073L69.2819 7.73786ZM116.051 15.6838C115.633 15.7366 115.201 15.828 115.091 15.887C114.98 15.9459 114.802 15.9941 114.694 15.9941C114.438 15.9941 112.81 16.826 112.428 17.152C111.789 17.6975 111.114 18.4424 111.114 18.6006C111.114 18.6536 111.044 18.7665 110.959 18.8516C110.874 18.9368 110.685 19.3694 110.541 19.8133C110.332 20.4531 110.277 20.8326 110.277 21.6471C110.277 22.6575 110.314 22.8314 110.708 23.6888C110.946 24.2095 111.625 24.9422 112.263 25.3689C113.149 25.9608 115.313 26.6561 116.27 26.6561C116.474 26.6561 116.67 26.7031 116.706 26.7606C116.741 26.8181 116.86 26.8651 116.97 26.8651C117.36 26.8651 118.792 27.4246 119.172 27.726C119.459 27.9527 119.685 28.508 119.685 28.9841C119.685 30.0577 119.112 30.903 118.02 31.4395C117.457 31.7163 117.381 31.7257 115.713 31.7257C114.492 31.7257 113.881 31.6836 113.622 31.5814C113.149 31.3946 112.264 30.813 112.264 30.6887C112.263 30.6357 112.183 30.5037 112.085 30.3953C111.951 30.2478 111.896 29.9501 111.863 29.2111L111.82 28.224H110.121C108.774 28.224 108.396 28.255 108.297 28.3737C108.143 28.5593 108.201 30.4735 108.381 31.1292C108.739 32.439 110.146 33.7799 111.636 34.2332C111.952 34.3293 112.318 34.4507 112.449 34.503C112.951 34.7039 115.417 34.813 116.81 34.6958C117.558 34.633 118.216 34.5449 118.274 34.5C118.331 34.4552 118.561 34.3856 118.783 34.3454C119.006 34.3053 119.265 34.2318 119.358 34.1822C119.452 34.1326 119.851 33.9413 120.245 33.757C121.227 33.2981 122.372 32.1866 122.869 31.2081C123.073 30.8084 123.239 30.3591 123.239 30.2098C123.239 30.0605 123.291 29.8857 123.356 29.8215C123.427 29.7501 123.475 29.2407 123.48 28.5105C123.486 27.5885 123.446 27.2231 123.305 26.9078C122.971 26.1579 122.788 25.8752 122.359 25.4402C121.916 24.9913 120.685 24.2519 120.382 24.2519C120.286 24.2519 120.208 24.2159 120.208 24.1721C120.208 24.0628 118.837 23.714 117.594 23.5068C117.221 23.4446 116.838 23.3547 116.745 23.3073C116.651 23.2598 116.401 23.1883 116.189 23.1485C115.688 23.0545 114.78 22.6155 114.5 22.3318C114.145 21.9716 114.04 21.6876 114.04 21.0793C114.04 19.9621 114.635 19.1627 115.765 18.7597C116.164 18.6176 116.622 18.5721 117.699 18.5676C119.315 18.561 119.994 18.7335 120.503 19.281C120.895 19.7014 121.171 20.4759 121.13 21.0344L121.096 21.4819L122.761 21.5107C123.682 21.5267 124.468 21.4965 124.522 21.4431C124.575 21.39 124.62 20.9033 124.621 20.3614C124.626 18.8945 124.347 18.153 123.448 17.2431C123.132 16.9233 122.685 16.5702 122.455 16.4584C122.225 16.3468 122.012 16.2228 121.982 16.1829C121.93 16.1146 121.553 16.0063 120.573 15.7786C119.96 15.6361 116.932 15.5726 116.051 15.6838ZM80.1206 16.0741C79.9863 16.1727 79.7661 16.5173 79.6873 16.7519C79.6535 16.8526 79.5843 16.9349 79.5335 16.9349C79.4828 16.9349 79.4412 17.0021 79.4412 17.0842C79.4412 17.1663 79.3824 17.2965 79.3105 17.3736C79.1814 17.512 79.0165 17.79 78.6409 18.5027C78.5349 18.7039 78.4218 18.8921 78.3895 18.9208C78.2615 19.0352 77.5597 20.2622 77.5597 20.3719C77.5597 20.4362 77.5126 20.4888 77.4551 20.4888C77.3977 20.4888 77.3506 20.5561 77.3506 20.6382C77.3506 20.7203 77.2919 20.8505 77.2199 20.9276C77.0909 21.066 76.9259 21.344 76.5503 22.0567C76.4443 22.2579 76.3312 22.446 76.2991 22.4748C76.267 22.5036 76.0189 22.9035 75.748 23.3634C75.477 23.8233 75.208 24.2702 75.1501 24.3564C75.0923 24.4427 75.0173 24.5955 74.9834 24.6961C74.9497 24.7968 74.8805 24.8791 74.8297 24.8791C74.779 24.8791 74.7374 24.9328 74.7374 24.9984C74.7374 25.0641 74.314 25.8151 73.7966 26.6674C73.2792 27.5196 72.8559 28.2655 72.8559 28.325C72.8559 28.3845 72.8088 28.4331 72.7513 28.4331C72.6938 28.4331 72.6468 28.4867 72.6468 28.5521C72.6468 28.6177 72.2235 29.3637 71.706 30.2101C71.1886 31.0564 70.7653 31.8025 70.7653 31.868C70.7653 31.9334 70.7182 31.9871 70.6607 31.9871C70.6033 31.9871 70.5562 32.0543 70.5562 32.1364C70.5562 32.2185 70.4975 32.3487 70.4256 32.4258C70.3537 32.5028 70.2054 32.7295 70.096 32.9297C69.9865 33.1299 69.7632 33.4959 69.5995 33.7431C69.4358 33.9904 69.3019 34.2374 69.3019 34.2919C69.3019 34.3511 70.0842 34.3912 71.2357 34.3912C72.8849 34.3912 73.1694 34.3681 73.1694 34.2344C73.1694 34.1482 73.2061 34.0776 73.2511 34.0776C73.2959 34.0776 73.3872 33.9482 73.4538 33.7902C73.5203 33.6321 73.7181 33.2675 73.8933 32.9801C74.0685 32.6926 74.2478 32.3869 74.2917 32.3006C74.6569 31.5836 75.216 30.6567 75.3478 30.5498C75.5596 30.3781 83.0501 30.3588 83.1556 30.5295C83.2389 30.6642 83.3812 31.5297 83.5155 32.7188C83.5707 33.2074 83.6719 33.7837 83.7404 33.9992L83.8649 34.3912H85.6821H87.4995L87.4418 34.0515C87.4102 33.8646 87.3351 33.4296 87.2751 33.0846C87.215 32.7397 87.1203 32.1282 87.0645 31.7257C87.0088 31.3233 86.937 30.9235 86.9049 30.8372C86.8522 30.6957 86.6973 29.8212 86.4418 28.224C86.3912 27.9078 86.3018 27.4609 86.2429 27.231C86.1842 27.001 86.1349 26.6392 86.1336 26.427C86.1322 26.2148 86.0896 26.0156 86.039 25.9843C85.9883 25.953 85.9129 25.5656 85.8715 25.1235C85.8301 24.6813 85.7574 24.2455 85.7099 24.155C85.6625 24.0646 85.5699 23.6143 85.5044 23.1543C85.3764 22.256 85.2009 21.2049 84.9282 19.7049C84.8343 19.1875 84.7158 18.5054 84.665 18.1892C84.6143 17.873 84.5248 17.4261 84.4659 17.1962C84.4072 16.9662 84.3579 16.6303 84.3566 16.4495C84.355 16.2481 84.2901 16.0964 84.1887 16.0575C83.9524 15.9668 80.2461 15.982 80.1206 16.0741ZM182.943 16.1297C182.881 16.2043 182.778 16.5454 182.715 16.8875C182.444 18.3441 182.319 18.9732 182.299 18.9732C182.273 18.9732 182.014 20.2347 181.887 20.9795C181.836 21.278 181.769 21.5646 181.737 21.6162C181.705 21.6679 181.633 21.9646 181.577 22.2755C181.521 22.5863 181.424 23.0759 181.362 23.3634C181.3 23.6509 181.176 24.2388 181.086 24.67C180.996 25.1012 180.882 25.5951 180.833 25.7676C180.783 25.94 180.711 26.3163 180.671 26.6038C180.631 26.8913 180.564 27.1735 180.522 27.231C180.479 27.2885 180.412 27.5942 180.373 27.9104C180.334 28.2266 180.261 28.6264 180.211 28.7989C180.108 29.1515 179.828 30.4117 179.745 30.8895C179.716 31.062 179.62 31.5324 179.532 31.9348C179.445 32.3372 179.309 33.0008 179.231 33.4094C179.152 33.818 179.055 34.2061 179.014 34.2717C178.959 34.3608 180.511 34.3912 185.116 34.3912H191.292L191.393 34.156C191.449 34.0266 191.539 33.6621 191.593 33.3459C191.646 33.0297 191.74 32.5829 191.8 32.3529C191.86 32.1229 191.911 31.7584 191.912 31.5428L191.915 31.1508H187.617H183.319L183.389 30.8634C183.427 30.7053 183.524 30.2702 183.604 29.8965C183.684 29.5228 183.823 28.8878 183.914 28.4853C184.005 28.0829 184.108 27.542 184.143 27.2832C184.178 27.0245 184.244 26.7654 184.29 26.7073C184.335 26.6493 184.406 26.3071 184.446 25.9471C184.487 25.587 184.558 25.2696 184.603 25.2415C184.649 25.2135 184.719 24.8734 184.759 24.4859C184.799 24.0986 184.869 23.7345 184.913 23.677C184.958 23.6195 185.044 23.2902 185.105 22.9453C185.217 22.3088 185.395 21.4462 185.688 20.123C185.777 19.7206 185.895 19.1561 185.95 18.8686C186.006 18.5812 186.1 18.1817 186.16 17.9809C186.221 17.78 186.27 17.4719 186.27 17.2962C186.27 17.1204 186.313 16.9319 186.366 16.8774C186.496 16.742 186.543 16.2848 186.444 16.1248C186.325 15.9346 183.101 15.9392 182.943 16.1297ZM92.0124 16.6474C91.9471 16.8342 91.861 17.2223 91.8212 17.5098C91.7815 17.7972 91.7138 18.103 91.6709 18.1892C91.6279 18.2754 91.56 18.6165 91.5198 18.947L91.447 19.5481H93.0635C94.7859 19.5481 94.807 19.5416 94.807 19.0155C94.807 18.9044 94.8488 18.7318 94.8998 18.632C95.0107 18.4153 95.2336 17.373 95.3018 16.7519L95.3506 16.3077H93.741H92.1312L92.0124 16.6474ZM127.381 16.5429C127.347 16.6723 127.318 16.8995 127.317 17.0481C127.316 17.1966 127.28 17.3532 127.237 17.396C127.161 17.4719 126.911 18.7122 126.867 19.2345L126.845 19.4958L128.44 19.5247C130.266 19.5577 130.149 19.6205 130.338 18.5028C130.392 18.1866 130.504 17.6229 130.588 17.2501C130.671 16.8774 130.717 16.5128 130.689 16.44C130.651 16.3412 130.233 16.3077 129.041 16.3077C127.474 16.3077 127.443 16.312 127.381 16.5429ZM81.3504 19.8367C81.2235 20.135 80.7863 20.919 80.6955 21.0109C80.6668 21.0399 80.5257 21.2989 80.382 21.5864C80.2382 21.8739 80.0971 22.1326 80.0684 22.1614C80.0396 22.1902 79.9289 22.3783 79.8224 22.5795C79.4329 23.3149 78.9838 24.1003 78.4348 25.0056C78.126 25.5149 77.8733 25.9737 77.8733 26.0251C77.8733 26.0765 77.8145 26.1815 77.7426 26.2585C77.5609 26.4532 77.2461 27.0304 77.2461 27.1687C77.2461 27.2488 78.0667 27.2832 79.9759 27.2832H82.7056L82.6373 26.6822C82.5996 26.3517 82.5267 25.8695 82.4752 25.6108C82.2942 24.7034 82.0163 22.8099 81.8383 21.2728C81.7717 20.6979 81.662 20.0751 81.5947 19.889L81.4722 19.5503L81.3504 19.8367ZM102.908 20.907C102.793 20.9564 102.541 21.0001 102.349 21.0042C102.017 21.0111 101.66 21.1342 100.902 21.5028C100.718 21.592 100.304 21.9008 99.9804 22.1889L99.3926 22.7128L99.4679 22.0451C99.5093 21.6779 99.5477 21.3068 99.5531 21.2205C99.5615 21.0893 99.319 21.0591 98.0616 21.0347C96.4217 21.0029 96.2704 21.0463 96.2704 21.5484C96.2704 21.7146 96.2246 21.9323 96.1686 22.0321C96.1125 22.1319 96.0197 22.4958 95.9623 22.8408C95.905 23.1857 95.7875 23.7972 95.7014 24.1996C95.3147 26.0069 95.2269 26.4334 95.1201 27.0219C95.0576 27.3669 94.9616 27.7307 94.9067 27.8306C94.8518 27.9304 94.8071 28.1185 94.8073 28.2487C94.8075 28.5002 94.5489 29.7369 94.3856 30.2648C94.3319 30.4387 94.2422 30.862 94.1864 31.2056C94.0737 31.899 93.8173 33.1032 93.7306 33.3459C93.6998 33.4322 93.6464 33.7038 93.612 33.9496L93.5493 34.3964L95.2496 34.3677L96.9498 34.339L97.0837 33.7118C97.1573 33.3668 97.2905 32.7318 97.3795 32.3006C97.4686 31.8695 97.6069 31.2109 97.6869 30.8372C98.0616 29.0853 98.151 28.6512 98.2569 28.0672C98.3194 27.7223 98.4154 27.3584 98.4703 27.2586C98.5252 27.1587 98.57 27.0033 98.57 26.9132C98.57 26.6474 99.173 25.642 99.571 25.244C99.9897 24.8251 100.889 24.3154 101.408 24.2026C101.601 24.1606 102.134 24.1066 102.594 24.0823C103.809 24.0186 103.901 23.9873 103.901 23.6394C103.901 23.4771 103.971 23.1135 104.057 22.8312C104.142 22.549 104.213 22.2039 104.213 22.0642C104.214 21.9246 104.273 21.6497 104.344 21.4535C104.459 21.1356 104.451 21.0807 104.271 20.9496C104.052 20.7891 103.241 20.7637 102.908 20.907ZM135.398 20.9993C135.043 21.0922 134.717 21.2036 134.675 21.2467C134.632 21.2897 134.519 21.3251 134.422 21.3251C134.034 21.3251 131.497 23.2417 131.497 23.5351C131.497 23.5785 131.391 23.7284 131.261 23.8683C130.898 24.2598 130.033 26.0543 130.033 26.4158C130.033 26.525 129.989 26.659 129.934 26.7136C129.808 26.8396 129.565 28.6163 129.57 29.3738C129.574 30.0526 129.761 31.2483 129.907 31.5283C129.964 31.6369 130.098 31.9061 130.205 32.1266C130.428 32.5865 131.49 33.764 131.682 33.764C131.752 33.764 131.81 33.8101 131.81 33.8666C131.81 33.9229 131.928 33.9986 132.072 34.0347C132.215 34.0707 132.333 34.1333 132.333 34.1737C132.333 34.214 132.627 34.3383 132.986 34.4499C133.532 34.6191 133.954 34.6525 135.542 34.6525C136.925 34.6525 137.48 34.6168 137.575 34.5219C137.647 34.4501 137.801 34.3912 137.917 34.3912C138.034 34.3912 138.483 34.2172 138.915 34.0045C139.498 33.7178 139.909 33.4083 140.5 32.8098C140.939 32.3654 141.362 31.8574 141.44 31.6809C141.519 31.5043 141.614 31.3599 141.653 31.3599C141.692 31.3599 141.755 31.2193 141.793 31.0474C141.83 30.8757 141.905 30.7082 141.958 30.6754C142.011 30.6427 142.054 30.5246 142.054 30.4129C142.054 30.2208 141.968 30.2101 140.437 30.2101H138.819L138.666 30.4975C138.402 30.9919 138.048 31.3242 137.401 31.6837C136.792 32.0218 136.742 32.0312 135.53 32.0351C134.623 32.0382 134.272 32.0038 134.241 31.9087C134.217 31.8368 134.142 31.7765 134.075 31.7746C133.908 31.7702 133.48 31.3798 133.182 30.961C132.987 30.6855 132.925 30.434 132.881 29.7328L132.826 28.8512H137.704H142.581L142.697 28.5637C142.76 28.4057 142.851 28.1822 142.898 28.0672C143.115 27.5427 143.221 25.9347 143.093 25.1187C143.023 24.6706 142.93 24.2571 142.888 24.1996C142.845 24.1421 142.777 23.9422 142.737 23.7554C142.697 23.5686 142.621 23.4157 142.569 23.4157C142.516 23.4157 142.472 23.3636 142.472 23.3001C142.472 23.1554 141.892 22.4103 141.49 22.0382C141.088 21.6656 139.767 21.0115 139.418 21.0115C139.265 21.0115 139.111 20.9645 139.075 20.907C138.968 20.7333 136.143 20.8043 135.398 20.9993ZM152.35 20.907C152.235 20.9564 151.984 21.0001 151.791 21.0042C151.461 21.0111 151.106 21.1331 150.352 21.4984C150.173 21.5851 149.783 21.8695 149.485 22.1303C149.187 22.391 148.918 22.5792 148.887 22.5485C148.856 22.5178 148.877 22.1947 148.933 21.8305C148.989 21.4663 149.013 21.133 148.988 21.0899C148.962 21.0468 148.271 21.0115 147.452 21.0115C145.841 21.0115 145.713 21.0518 145.713 21.5565C145.713 21.7182 145.668 21.9323 145.613 22.0321C145.558 22.1319 145.461 22.4958 145.398 22.8408C145.143 24.2195 145.017 24.8341 144.957 24.9836C144.922 25.0698 144.865 25.3521 144.829 25.6108C144.793 25.8695 144.722 26.2223 144.672 26.3947C144.569 26.7437 144.289 28.0001 144.205 28.4853C144.176 28.6578 144.078 29.1397 143.988 29.5562C143.629 31.2187 143.519 31.7519 143.409 32.3529C143.347 32.6978 143.255 33.0742 143.206 33.1891C143.156 33.3041 143.09 33.6216 143.058 33.8947L142.999 34.3912H144.653H146.306L146.423 33.9992C146.524 33.6569 146.699 32.886 146.914 31.8303C146.949 31.6578 147.046 31.1991 147.129 30.8111C147.315 29.9439 147.532 28.898 147.697 28.0672C147.766 27.7223 147.862 27.346 147.911 27.231C147.96 27.116 148.03 26.8691 148.067 26.6822C148.103 26.4954 148.172 26.3425 148.218 26.3425C148.265 26.3425 148.33 26.235 148.363 26.1036C148.455 25.7368 149.295 24.9218 149.93 24.5829C150.615 24.2175 150.941 24.1399 152.037 24.0823C153.37 24.0123 153.311 24.0502 153.395 23.2073C153.436 22.8045 153.505 22.4749 153.55 22.4749C153.594 22.4749 153.656 22.2515 153.688 21.9784C153.72 21.7053 153.778 21.3769 153.818 21.2486C153.876 21.0596 153.836 20.995 153.61 20.9088C153.277 20.7823 152.643 20.7813 152.35 20.907ZM161.476 20.8583C161.445 20.889 161.139 20.9592 160.797 21.0145C159.989 21.1446 159.022 21.6328 158.392 22.2288C157.862 22.7295 157.694 22.6736 157.929 22.0747C157.989 21.9211 158.052 21.6308 158.069 21.4296L158.099 21.0638L156.524 21.035C154.71 21.0019 154.8 20.9514 154.607 22.109C154.55 22.454 154.427 23.0655 154.335 23.4679C154.109 24.452 153.878 25.55 153.762 26.1857C153.71 26.4731 153.621 26.873 153.565 27.0742C153.509 27.2754 153.386 27.8399 153.291 28.3285C153.196 28.8172 153.073 29.3817 153.017 29.5829C152.961 29.7841 152.872 30.1839 152.82 30.4714C152.768 30.7588 152.652 31.335 152.564 31.7519C152.475 32.1687 152.336 32.8273 152.255 33.2153C152.173 33.6033 152.074 34.0266 152.033 34.156L151.96 34.3912H153.684H155.408L155.469 34.1038C155.503 33.9457 155.605 33.487 155.696 33.0846C155.927 32.0657 156.164 30.8986 156.291 30.1578C156.35 29.8128 156.439 29.4365 156.49 29.3216C156.54 29.2066 156.626 28.8538 156.68 28.5376C156.981 26.8008 157.319 26.0017 158.052 25.2972C158.638 24.7346 158.738 24.6593 159.145 24.4717C159.651 24.2384 160.23 24.1261 161.286 24.0562L162.278 23.9906L162.351 23.6247C162.391 23.4235 162.499 22.9296 162.59 22.5272C162.681 22.1247 162.783 21.6024 162.817 21.3665C162.873 20.9793 162.855 20.9311 162.632 20.8714C162.33 20.7905 161.552 20.7816 161.476 20.8583ZM166.828 20.9228C165.128 21.3829 164.558 21.6832 163.724 22.558C163.213 23.0942 162.866 23.6704 162.494 24.6044C162.169 25.4206 162.135 25.4017 163.908 25.4017C165.504 25.4017 165.782 25.3388 165.782 24.9772C165.782 24.9081 165.885 24.6813 166.01 24.4733C166.546 23.5815 167.001 23.3902 168.605 23.3821C169.68 23.3767 169.848 23.4013 170.199 23.6156C170.647 23.8886 170.742 24.1464 170.67 24.8896C170.609 25.5264 170.25 25.9494 169.614 26.1352C169.375 26.205 168.568 26.3237 167.821 26.399C165.551 26.6277 164.632 26.7536 164.425 26.8642C164.317 26.9222 164.15 26.9697 164.054 26.9697C163.887 26.9697 163.524 27.1117 162.757 27.4775C161.936 27.869 160.765 29.3402 160.765 29.9802C160.765 30.0998 160.718 30.2268 160.66 30.2623C160.603 30.2979 160.556 30.7342 160.556 31.2319C160.556 32.2239 160.748 32.9028 161.153 33.3449C161.285 33.488 161.392 33.6409 161.392 33.6846C161.392 33.7283 161.437 33.764 161.491 33.764C161.546 33.764 161.714 33.8787 161.865 34.0189C162.016 34.1591 162.289 34.306 162.472 34.3456C162.654 34.3852 162.837 34.4704 162.878 34.5351C162.982 34.6987 166.635 34.6978 166.838 34.5339C166.918 34.4687 167.137 34.3827 167.324 34.3427C167.511 34.3028 167.664 34.2319 167.664 34.1852C167.664 34.1385 167.781 34.0707 167.925 34.0347C168.069 33.9986 168.186 33.9229 168.186 33.8666C168.186 33.8101 168.245 33.7638 168.317 33.7635C168.389 33.7633 168.601 33.6198 168.787 33.4447L169.127 33.1263V33.7587V34.3912H170.856C172.572 34.3912 172.583 34.3897 172.468 34.1746C172.321 33.8989 172.397 32.5951 172.618 31.6212C172.709 31.2188 172.852 30.5602 172.935 30.1578C173.018 29.7554 173.162 29.0968 173.255 28.6944C173.347 28.2919 173.467 27.751 173.52 27.4923C173.574 27.2336 173.695 26.6691 173.791 26.2379C174.018 25.2136 174.095 23.5683 173.932 23.2139C173.582 22.4505 173.459 22.2344 173.254 22.0247C172.968 21.7313 172.592 21.4296 172.513 21.4296C172.479 21.4296 172.303 21.3622 172.122 21.2798C171.339 20.9237 170.483 20.8023 168.831 20.8131C167.93 20.8189 167.029 20.8684 166.828 20.9228ZM198.448 21.0022C197.75 21.1993 197.619 21.2473 196.906 21.5688C196.633 21.6919 196.409 21.8285 196.409 21.8724C196.409 21.9163 196.363 21.9523 196.306 21.9523C196.045 21.9523 194.525 23.4387 194.028 24.1787C193.843 24.4547 193.692 24.7019 193.692 24.728C193.692 24.7542 193.577 25.0124 193.438 25.302C193.298 25.5915 193.151 25.9779 193.111 26.1604C193.071 26.343 193 26.5645 192.953 26.6526C192.907 26.7407 192.791 27.2597 192.695 27.8059C192.445 29.2319 192.578 30.8124 193.028 31.778C193.401 32.5776 194.4 33.7545 194.711 33.7612C194.783 33.7628 194.841 33.8027 194.841 33.8501C194.841 33.9559 195.696 34.3912 195.903 34.3912C195.986 34.3912 196.113 34.4501 196.185 34.5219C196.359 34.6958 200.383 34.7089 200.601 34.5363C200.681 34.4723 200.888 34.3891 201.061 34.3513C201.798 34.1897 202.743 33.5973 203.543 32.7953C203.989 32.3486 204.354 31.9174 204.354 31.8371C204.354 31.7567 204.389 31.6752 204.432 31.656C204.565 31.597 204.981 30.6706 204.981 30.4338C204.981 30.2148 204.946 30.2101 203.361 30.2101C202.306 30.2101 201.74 30.2481 201.74 30.319C201.74 30.4718 201.096 31.3125 200.893 31.4242C199.81 32.0207 199.738 32.0393 198.509 32.0393C197.647 32.0393 197.303 32.003 197.272 31.9087C197.248 31.8368 197.167 31.778 197.092 31.778C197.018 31.778 196.767 31.5882 196.535 31.3561C196.043 30.8643 195.751 30.0744 195.801 29.3705L195.834 28.9034L200.742 28.8512L205.65 28.7989L205.855 28.2763C206.026 27.8406 206.062 27.4806 206.069 26.1126C206.076 24.9288 206.042 24.4351 205.948 24.3408C205.876 24.2689 205.817 24.1209 205.817 24.0119C205.817 23.3865 204.569 21.9442 203.603 21.4534C202.644 20.9661 202.171 20.8727 200.538 20.8476C199.425 20.8304 198.925 20.8674 198.448 21.0022ZM212.664 20.9968C212.319 21.0911 211.989 21.1981 211.932 21.2343C211.874 21.2707 211.674 21.3332 211.488 21.3734C211.301 21.4134 211.148 21.4895 211.148 21.5424C211.148 21.5954 211.093 21.6387 211.026 21.6387C210.842 21.6387 209.899 22.269 209.426 22.7088C209.194 22.9236 208.97 23.1001 208.927 23.1008C208.884 23.1014 208.848 23.1513 208.848 23.2116C208.848 23.2718 208.742 23.4248 208.613 23.5513C208.342 23.8167 207.908 24.4174 207.908 24.5269C207.908 24.5678 207.845 24.6756 207.768 24.7663C207.691 24.8571 207.567 25.096 207.491 25.2972C207.415 25.4984 207.296 25.8042 207.225 25.9766C206.849 26.891 206.714 27.7724 206.711 29.3335C206.71 30.3476 206.75 30.9652 206.826 31.0582C206.89 31.1379 206.973 31.3442 207.01 31.5167C207.048 31.6891 207.302 32.1576 207.575 32.5579C208.127 33.3657 209.243 34.2293 209.894 34.3522C210.095 34.3903 210.293 34.4734 210.334 34.5369C210.44 34.7019 214.512 34.6965 214.712 34.5312C214.793 34.4645 215.035 34.377 215.251 34.3367C215.466 34.2964 215.643 34.2216 215.643 34.1706C215.643 34.1194 215.696 34.0776 215.762 34.0776C215.946 34.0776 216.792 33.6333 216.792 33.5365C216.792 33.4891 216.845 33.4505 216.908 33.4505C217.043 33.4505 217.781 32.8861 218.138 32.5097C218.914 31.6902 219.575 30.6732 219.869 29.8442C219.971 29.5567 220.096 29.2275 220.147 29.1125C220.476 28.3585 220.618 25.4592 220.373 24.4594C220.309 24.1998 220.125 23.7301 219.962 23.4156C219.658 22.8266 218.718 21.804 218.323 21.6319C218.2 21.5784 218.029 21.4948 217.942 21.4461C217.108 20.9753 216.596 20.8778 214.806 20.8494C213.665 20.8312 213.136 20.8676 212.664 20.9968ZM228.467 21.1179C227.65 21.4149 227.185 21.7008 226.531 22.3081L226.182 22.6317L226.257 22.109C226.298 21.8216 226.37 21.5112 226.418 21.4195C226.592 21.0817 226.309 21.0115 224.774 21.0115C223.698 21.0115 223.262 21.0477 223.201 21.1422C223.155 21.2141 223.057 21.5786 222.984 21.9523C222.911 22.3259 222.81 22.8198 222.759 23.0498C222.556 23.9683 222.319 25.0732 222.175 25.7676C222.092 26.17 221.952 26.8285 221.864 27.231C221.775 27.6334 221.631 28.3155 221.543 28.7466C221.454 29.1778 221.312 29.8599 221.225 30.2623C221.139 30.6648 221.029 31.1822 220.981 31.4121C220.77 32.4248 220.64 33.0018 220.559 33.2937C220.51 33.4661 220.441 33.7837 220.404 33.9992L220.337 34.3912H222.06H223.783L223.851 33.8947C223.889 33.6216 223.96 33.2571 224.01 33.0846C224.154 32.5811 224.413 31.3473 224.481 30.8372C224.516 30.5785 224.581 30.2728 224.627 30.1578C224.702 29.9691 224.801 29.5267 225.049 28.2763C225.421 26.4054 225.368 26.5913 225.787 25.6792C226.079 25.042 226.685 24.4363 227.326 24.1414C227.598 24.016 227.902 23.8719 228.002 23.8213C228.306 23.6667 229.586 23.7136 229.945 23.8924C230.68 24.2591 230.938 25.1202 230.697 26.3947C230.357 28.1896 230.298 28.4853 230.278 28.4853C230.266 28.4853 230.189 28.8146 230.107 29.217C229.896 30.2501 229.785 30.7792 229.598 31.6468C229.508 32.0633 229.371 32.7218 229.293 33.1102C229.216 33.4985 229.118 33.9457 229.076 34.1038L229 34.3912H230.736H232.472V34.1284C232.472 33.984 232.518 33.784 232.574 33.6842C232.63 33.5844 232.723 33.2205 232.781 32.8755C232.966 31.7692 233.15 30.8924 233.218 30.785C233.254 30.7275 233.318 30.3864 233.359 30.0269C233.4 29.6675 233.476 29.3473 233.527 29.3152C233.579 29.2832 233.622 29.1335 233.622 28.9826C233.622 28.8316 233.689 28.4463 233.771 28.1264C234.165 26.586 234.27 25.8735 234.276 24.6945C234.281 23.735 234.238 23.326 234.089 22.912C233.775 22.0397 232.678 21.0115 232.06 21.0115C231.948 21.0115 231.828 20.9645 231.792 20.907C231.755 20.846 231.218 20.8063 230.506 20.8117C229.439 20.8199 229.18 20.8588 228.467 21.1179ZM240.782 21.0022C240.084 21.1993 239.953 21.2473 239.24 21.5688C238.967 21.6919 238.744 21.8285 238.744 21.8724C238.744 21.9163 238.693 21.9523 238.632 21.9523C238.57 21.9523 238.457 22.0111 238.381 22.0829C238.304 22.1548 237.962 22.4488 237.62 22.7362C236.734 23.4795 236.245 24.1924 235.611 25.663C234.973 27.142 234.707 29.5086 235.036 30.7891C235.273 31.7137 235.797 32.7041 236.335 33.2472C236.837 33.7532 237.9 34.3912 238.242 34.3912C238.322 34.3912 238.447 34.4501 238.519 34.5219C238.693 34.6958 242.717 34.7089 242.935 34.5363C243.016 34.4723 243.223 34.3891 243.395 34.3513C244.036 34.2108 245.067 33.5946 245.688 32.9801C246.399 32.2774 246.688 31.9296 246.688 31.7768C246.688 31.72 246.73 31.6735 246.781 31.6735C246.832 31.6735 246.907 31.5446 246.946 31.3871C246.986 31.2295 247.063 31.0728 247.118 31.0389C247.173 31.0049 247.246 30.8045 247.28 30.5936L247.342 30.2101H245.709C244.645 30.2101 244.075 30.2481 244.075 30.319C244.075 30.4834 243.418 31.3351 243.238 31.403C243.152 31.4357 242.87 31.5888 242.611 31.7433C242.174 32.0045 242.054 32.0247 240.895 32.0317C239.986 32.0372 239.638 32.004 239.606 31.9087C239.582 31.8368 239.494 31.778 239.41 31.778C239.18 31.778 238.423 30.9319 238.357 30.601C238.325 30.4411 238.258 30.2849 238.208 30.254C238.157 30.223 238.116 29.8952 238.116 29.5255V28.8533L243.055 28.8261L247.994 28.7989L248.197 28.224C248.362 27.7557 248.401 27.3544 248.406 26.0602C248.411 24.9214 248.376 24.4344 248.282 24.3407C248.21 24.2688 248.151 24.1219 248.151 24.0141C248.151 23.6687 247.244 22.4016 246.674 21.9511C245.586 21.0911 244.852 20.878 242.873 20.8476C241.759 20.8304 241.259 20.8674 240.782 21.0022ZM91.0674 21.1343C90.997 21.2048 90.9394 21.3947 90.9394 21.5565C90.9394 21.7182 90.8936 21.9323 90.8376 22.0321C90.7816 22.1319 90.6887 22.4958 90.6313 22.8408C90.574 23.1857 90.4565 23.7972 90.3704 24.1996C89.9837 26.0069 89.8959 26.4334 89.7892 27.0219C89.7266 27.3669 89.6306 27.7307 89.5757 27.8306C89.5208 27.9304 89.4761 28.1185 89.4763 28.2487C89.4765 28.5002 89.2179 29.7369 89.0546 30.2648C89.0009 30.4387 88.9112 30.862 88.8554 31.2056C88.7427 31.899 88.4863 33.1032 88.3997 33.3459C88.3688 33.4322 88.3154 33.7038 88.281 33.9496L88.2183 34.3964L89.9186 34.3677L91.6188 34.339L91.7527 33.7118C91.8263 33.3668 91.9595 32.7318 92.0486 32.3006C92.1376 31.8695 92.2759 31.2109 92.3559 30.8372C92.7098 29.1826 92.8422 28.5462 92.9648 27.9104C93.0368 27.5367 93.1228 27.1604 93.1559 27.0742C93.189 26.9879 93.2968 26.5176 93.3956 26.0289C93.7342 24.3539 93.8794 23.6766 93.9783 23.3111C94.1092 22.8274 94.295 21.7701 94.3181 21.3773L94.3366 21.0638L92.766 21.035C91.6329 21.0143 91.1597 21.042 91.0674 21.1343ZM126.397 21.2467C126.332 21.3761 126.233 21.7641 126.175 22.109C126.118 22.454 125.995 23.0655 125.903 23.4679C125.677 24.452 125.446 25.55 125.33 26.1857C125.278 26.4731 125.189 26.873 125.133 27.0742C125.077 27.2754 124.954 27.8399 124.859 28.3285C124.764 28.8172 124.641 29.3817 124.585 29.5829C124.529 29.7841 124.44 30.1839 124.388 30.4714C124.336 30.7588 124.222 31.3233 124.136 31.7257C124.05 32.1282 123.911 32.7867 123.827 33.1891C123.743 33.5916 123.642 34.0266 123.601 34.156L123.528 34.3912H125.252H126.976L127.037 34.1038C127.071 33.9457 127.173 33.487 127.264 33.0846C127.495 32.0657 127.732 30.8986 127.859 30.1578C127.918 29.8128 128.007 29.4365 128.058 29.3216C128.108 29.2066 128.195 28.8538 128.25 28.5376C128.356 27.9407 128.546 27.0229 128.824 25.7676C128.913 25.3651 129.031 24.8007 129.087 24.5132C129.142 24.2258 129.236 23.8263 129.296 23.6255C129.357 23.4245 129.406 23.1165 129.406 22.9408C129.406 22.765 129.451 22.5765 129.505 22.5219C129.56 22.4673 129.637 22.1052 129.676 21.7171L129.749 21.0115H128.132C126.559 21.0115 126.511 21.018 126.397 21.2467ZM136.026 23.6117C135.003 23.9423 134.086 24.7906 133.555 25.8997L133.291 26.4499L136.549 26.4223L139.807 26.3947L139.795 25.7988C139.759 23.9946 138 22.9738 136.026 23.6117ZM199 23.6117C198.426 23.8093 197.446 24.4908 197.139 24.9057C197.021 25.0641 196.785 25.4639 196.613 25.7942L196.302 26.3947L199.464 26.4224C201.204 26.4377 202.686 26.4274 202.758 26.3996C202.941 26.3295 202.923 25.8044 202.716 25.16C202.501 24.4928 201.874 23.8385 201.214 23.5923C200.629 23.3744 199.664 23.3827 199 23.6117ZM241.357 23.6121C240.245 24.0144 239.477 24.6989 238.963 25.7452L238.643 26.3947L241.802 26.4224C243.539 26.4377 245.02 26.4274 245.093 26.3996C245.275 26.3295 245.257 25.8044 245.05 25.16C244.835 24.4928 244.209 23.8385 243.549 23.5923C242.963 23.3741 241.99 23.3827 241.357 23.6121ZM213.552 23.6918C213.466 23.7197 213.095 23.8924 212.728 24.0757C211.733 24.572 211.13 25.3258 210.458 26.9174C210.333 27.2112 210.266 27.7462 210.232 28.7177C210.187 29.9939 210.201 30.1342 210.415 30.547C210.704 31.1049 211.304 31.6681 211.693 31.7459C211.856 31.7784 212.014 31.8459 212.045 31.896C212.076 31.9461 212.369 31.9863 212.696 31.9855C213.295 31.984 213.923 31.819 214.595 31.4871C215.055 31.2594 216.151 30.148 216.231 29.8265C216.265 29.6925 216.325 29.5829 216.364 29.5829C216.403 29.5829 216.515 29.3359 216.611 29.0341C217.495 26.2789 217.182 24.4946 215.697 23.8204C215.295 23.6376 213.966 23.558 213.552 23.6918ZM169.85 28.2227C169.583 28.379 168.209 28.6277 167.193 28.7036C166.676 28.7423 166.206 28.8082 166.148 28.8501C166.091 28.892 165.892 28.955 165.707 28.9901C165.243 29.0779 164.599 29.503 164.306 29.9151C164.113 30.1854 164.06 30.3967 164.059 30.9036C164.058 31.4765 164.09 31.5786 164.35 31.8199C164.511 31.9694 164.711 32.0916 164.795 32.0916C164.878 32.0916 164.946 32.1386 164.946 32.1961C164.946 32.4805 167.439 32.1891 167.664 31.8786C167.693 31.8387 167.824 31.7726 167.956 31.7314C168.577 31.5373 169.754 29.9442 169.754 29.2969C169.754 29.1897 169.796 29.0573 169.846 29.0027C169.933 28.9094 170.113 28.1158 170.047 28.1226C170.03 28.1244 169.941 28.1694 169.85 28.2227Z" fill="#220002"/>
</svg>
