<svg width="86" height="30" viewBox="0 0 86 30" fill="none" xmlns="http://www.w3.org/2000/svg">
<path d="M5.51546 0H13.2474L13.4021 0.154639L14.2784 2.26804L15.4639 5.05155L16.0309 6.28866L16.2371 6.18557L16.701 5.6701L17.1649 5.10309L17.7835 4.43299L18.1959 3.91753L18.6598 3.40206L19.1237 2.83505L19.7423 2.16495L20.1031 1.75258L20.7217 1.08247L21.134 0.721649L21.8557 0.309278L22.5258 0.103093L23.2474 0H30.2577L30.1031 0.154639L29.433 0.360825L28.2474 0.927835L27.4742 1.4433L26.9588 1.85567L26.1856 2.57732L25.7217 3.14433L25.2577 3.65979L24.6907 4.27835L24.2268 4.84536L23.7629 5.36082L23.299 5.92783L22.732 6.54639L22.0619 7.31959L21.5979 7.8866L21.0309 8.50515L20.6186 9.02062L20.1031 9.53608L19.6392 10.1031L19.0722 10.7216L18.6082 11.2887L18.4536 11.5464V11.9588L18.866 13.0412L19.5361 14.5876L20.2062 16.1856L20.8763 17.732L21.5464 19.3299L21.9588 20.2577L36.8041 20.3093H42.9381L43.1443 20.4124L42.1134 20.7216L40.6701 21.3402L39.6392 21.9072L38.7629 22.5258L38.0928 23.0928L37.5773 23.5567L37.0619 24.1753L36.701 24.5876L36.1856 24.8969L36.0309 24.9485L34.6392 25H16.4948L16.134 24.9485L15.8763 24.5876L15.0515 22.6804L14.5361 21.4433L13.6598 19.3299L12.9897 17.8351H12.8866L12.268 18.5567L11.8041 19.0722L11.2371 19.7938L10.6701 20.3608L10.1031 21.0825L9.58763 21.6495L9.53608 21.7526H9.43299L9.3299 21.9588L8.71134 22.6804L8.24742 23.1443L7.68041 23.866L7.16495 24.433L6.80412 24.8454L6.64949 25H0.154639L0 24.9485L0.0515464 24.7423L0.670103 24.0206L1.08247 23.6082L1.54639 23.0412L2.16495 22.3196L2.83505 21.5464L3.29897 21.0309L3.86598 20.4124L4.27835 19.8969L4.84536 19.2784L5.25773 18.7629L5.82474 18.1443L6.28866 17.6289L6.75258 17.0619L7.31959 16.4433L7.93814 15.6701L8.19588 15.4124L8.65979 14.8969L9.02062 14.433L9.43299 14.0206L10.3608 12.8866L10.6186 12.6804L10.6701 12.3711L10.0515 10.8763L6.49485 2.57732L5.92784 1.18557L5.51546 0.154639V0Z" fill="#220002"/>
<path d="M56.134 0H62.5258L62.3196 0.154639L61.701 0.412371L60.7217 1.03093L60.2577 1.49485L59.7938 2.21649L59.4845 2.93814L59.1753 4.27835L58.5567 7.52577L57.4227 13.299L56.2887 18.7629L55.6186 21.7526L55.1546 23.7113L54.6907 25.1031L54.2784 25.9794L53.866 26.6495L53.5052 27.1134L53.0412 27.6289L52.5773 28.0928L51.9588 28.5567L51.134 29.0206L50.3093 29.3814L49.3299 29.6907L48.299 29.8969L47.5258 30H45.3093L43.7629 29.8454L42.3196 29.6907L42.0619 29.5876L42.165 29.4845L43.6598 29.2268L44.7423 28.9175L45.7732 28.4536L46.701 27.8351L47.2165 27.4227L47.9381 26.701L48.6082 25.7732L48.9691 25.2062L49.3814 24.4845L49.7938 23.6082L50.2577 22.3711L50.6701 20.5155L51.8041 14.7938L52.8351 9.63918L54.1753 2.8866L54.4845 1.49485L54.6907 0.979381L55 0.515464L55.5155 0.154639L55.7732 0.0515464L56.134 0Z" fill="#220002"/>
<path d="M82.4742 2.83505H82.6289L82.3711 4.27835L81.9588 6.34021V6.4433L84.9485 6.54639L85.6186 6.59794L85.4124 6.70103L84.1237 6.95876L83.3505 7.26804L82.5258 7.7835L82.0619 8.24742L81.701 8.76289L81.4433 9.3299L81.1856 10.3093L79.3814 19.3299L79.3299 19.6907V21.0309L79.5361 21.701L79.7423 22.1134L80.0516 22.4742L80.6701 22.7835L81.134 22.8866L81.9588 22.8351L82.268 22.732H82.6804L82.732 22.9381L81.9588 23.7629L81.4433 24.1753L80.7732 24.5876L79.8969 25L78.9175 25.2577L78.6083 25.3093H77.6289L76.7526 25.1031L76.134 24.8454L75.4124 24.3814L74.9485 23.9691L74.5876 23.4536L74.3299 22.8351L74.1237 21.9588V20.7732L74.3299 19.2268L75.4639 13.6082L76.3402 9.2268L76.7526 7.1134L76.9588 6.70103L77.268 6.4433L77.9897 5.92783L80.4639 4.2268L81.3402 3.60825L81.8557 3.24742L82.4742 2.83505Z" fill="#220002"/>
<path d="M28.9175 9.48454H45.1546L45 9.63918L43.6598 10.2577L42.732 10.7732L41.9072 11.3402L41.2887 11.8041L40.7732 12.268L39.8969 13.1443L39.433 13.7113L39.0206 14.1237L38.4021 14.3814L37.6289 14.433H21.9072L21.7526 14.3814L21.8041 14.1237L22.3711 13.4021L22.8351 12.8866L23.2474 12.3711L24.0722 11.5464L24.7938 10.9794L25.3608 10.567L26.1856 10.1031L26.9072 9.79381L27.8866 9.53608L28.9175 9.48454Z" fill="#220002"/>
<path d="M35.2577 0H50L49.7938 0.154639L48.6082 0.721649L47.5258 1.28866L46.701 1.85567L45.7732 2.57732L45 3.29897L44.433 3.91753L44.0206 4.43299L43.6082 4.74227L43.299 4.84536L42.9381 4.89691L26.701 4.94845L26.5979 4.89691L26.6495 4.63917L27.2165 3.96907L27.6804 3.40206L28.1443 2.8866L29.0722 1.95876L29.7938 1.4433L30.6186 1.03093L31.8557 0.56701L32.9897 0.257732L34.2784 0.0515464L35.2577 0Z" fill="#220002"/>
<path fill-rule="evenodd" clip-rule="evenodd" d="M70 5.87629H68.9691L67.732 6.03093L66.4433 6.34021L65.3608 6.75258L64.2784 7.31959L63.299 7.93814L62.6289 8.45361L62.0619 8.91753L61.6495 9.3299L61.1856 9.84536L60.5155 10.6701L59.8969 11.5464L59.2784 12.5258L58.7629 13.5567L58.2474 14.7938L57.9381 15.8247L57.6804 16.9588L57.5258 18.3505V19.5361L57.6804 20.4639L57.9897 21.4948L58.3505 22.3196L58.866 23.0928L59.3814 23.6082L59.9485 24.0722L60.9278 24.5876L61.9072 24.9485L63.1443 25.2062L64.1237 25.3093H64.7423L65.3608 25.2577L66.3402 25.1031L67.4227 24.7938L68.4536 24.3814L69.1753 23.9691L69.8454 23.5052L70.567 22.9381L71.3918 22.1134L71.701 21.7526L72.1134 21.1856L72.5258 20.567L73.2474 19.1237L73.8144 17.4227V16.8557H73.7113L73.4021 17.3711L72.9381 17.9897L72.3711 18.6082L72.0103 19.0206L71.134 19.8969L70.6186 20.3093L69.7423 20.9278L69.0206 21.2887L68.1959 21.5979L66.8041 21.9072H65.4124L65.1546 21.8557L64.2784 21.5979L63.7629 21.2887L63.3505 20.8763L62.9897 20.3093L62.732 19.6907L62.5258 18.7113V18.3505L64.8969 18.0412L66.3918 17.732L67.268 17.4742L68.2474 17.1134L69.2784 16.6495L70.2062 16.134L71.134 15.5155L71.8041 15L72.2165 14.5876L72.5773 14.1753L73.0928 13.5052L73.4536 12.9381L73.866 12.0619L74.1237 11.2887L74.2784 10.3093V9.27835L74.1237 8.60825L73.7629 7.83505L73.3505 7.31959L72.6804 6.70103L71.9072 6.28866L71.0825 6.03093L70 5.87629ZM68.6083 9.3299L67.9381 9.2268L67.4227 9.27835L66.8557 9.43299L66.134 9.84536L65.6186 10.2062L65.0516 10.7732L64.4845 11.4433L63.9691 12.2165L63.4021 13.4536L63.0412 14.5361L62.8866 15.1031L63.0412 15.1546H63.6598L64.433 15.1031L65.7217 14.8969L66.4949 14.6392L67.165 14.3299L67.8351 13.9175L68.4021 13.3505L68.9691 12.732L69.2268 12.268L69.4845 11.6495L69.5876 11.2371V10.567L69.3814 10L69.0206 9.58763L68.6083 9.3299Z" fill="#220002"/>
</svg>
